<svg width="32" height="32" viewBox="0 0 32 32" fill="none" xmlns="http://www.w3.org/2000/svg">
<path d="M30.9999 15.9502C30.9724 7.664 24.2364 0.972596 15.9502 1.00013C7.66396 1.02766 0.972551 7.76368 1.00008 16.0499C1.02762 24.3361 7.76364 31.0275 16.0498 31C24.336 30.9724 31.0275 24.2364 30.9999 15.9502ZM15.702 24.1373L10.0778 9.69344C9.83303 9.023 10.2373 8.4354 11.2531 8.64953L11.2518 8.64828L22.8612 11.0722C23.6843 11.252 23.8859 11.7401 23.5007 12.4251L20.7494 16.1843L22.4979 17.9872C22.6986 18.1866 22.8679 18.3547 22.8692 18.7422L19.052 18.4887L12.7502 11.5596C12.483 11.258 12.3342 11.6285 12.6005 12.0263L18.0365 20.5971L16.8938 24.3034C16.6415 25.108 16.0928 25.1273 15.702 24.1373V24.1373Z" fill="black"/>
</svg>
